<svg width="21" height="18" viewBox="0 0 21 18" fill="none" xmlns="http://www.w3.org/2000/svg">
<path d="M12.875 1H16C18.2091 1 20 2.79086 20 5V6.77778V11.2222V13C20 15.2091 18.2091 17 16 17H12.875H8.125H5C2.79086 17 1 15.2091 1 13V11.2222V6.77778V5C1 2.79086 2.79086 1 5 1H8.125H12.875Z" fill="#F6C859"/>
<path d="M8.125 1L10.5 3.88889M8.125 1H12.875M8.125 1H5C2.79086 1 1 2.79086 1 5V6.77778M10.5 3.88889L12.875 1M10.5 3.88889V6.77778H8.67308M12.875 1H16C18.2091 1 20 2.79086 20 5V6.77778M8.125 17H5C2.79086 17 1 15.2091 1 13V11.2222M8.125 17L10.5 14.1111M8.125 17H12.875M10.5 14.1111L12.875 17M10.5 14.1111V11.2222M12.875 17H16C18.2091 17 20 15.2091 20 13V11.2222M10.5 11.2222H12.3269M10.5 11.2222H8.67308M1 11.2222V6.77778M1 11.2222H8.67308M20 11.2222H12.3269M20 11.2222V6.77778M1 6.77778H8.67308M8.67308 6.77778V11.2222M12.3269 11.2222V6.77778H20" stroke="#7D662D"/>
</svg>
