<svg width="65" height="64" viewBox="0 0 65 64" fill="none" xmlns="http://www.w3.org/2000/svg">
<ellipse cx="32.5" cy="32" rx="32.5" ry="32" fill="#E06E67"/>
<path d="M34.8523 14.0909L34.4091 38.9602H29.6875L29.2443 14.0909H34.8523ZM32.0568 49.3239C31.1136 49.3239 30.3068 48.9943 29.6364 48.3352C28.9659 47.6648 28.6364 46.858 28.6477 45.9148C28.6364 44.983 28.9659 44.1875 29.6364 43.5284C30.3068 42.858 31.1136 42.5227 32.0568 42.5227C32.9773 42.5227 33.7727 42.858 34.4432 43.5284C35.1136 44.1875 35.4545 44.983 35.4659 45.9148C35.4545 46.5398 35.2898 47.1136 34.9716 47.6364C34.6648 48.1477 34.2557 48.5568 33.7443 48.8636C33.233 49.1705 32.6705 49.3239 32.0568 49.3239Z" fill="white"/>
</svg>
